<svg width="271" height="150" viewBox="0 0 271 150" fill="none" xmlns="http://www.w3.org/2000/svg">
<path d="M-27 61C-27 50.5066 -18.4934 42 -8 42H34C44.4934 42 53 50.5066 53 61V154H-27V61Z" fill="#4F5037"/>
<path d="M-39 73C-39 62.5066 -30.4934 54 -20 54H74C84.4934 54 93 62.5066 93 73V166H-39V73Z" fill="#6A7051"/>
<path d="M-56 88C-56 77.5066 -47.4934 69 -37 69H57C67.4934 69 76 77.5066 76 88V181H-56V88Z" fill="#93996F"/>
<path d="M-59 107C-59 96.5066 -50.4934 88 -40 88H150C160.493 88 169 96.5066 169 107V200H-59V107Z" fill="#7CBB8E"/>
<path d="M-49 117C-49 106.507 -40.4934 98 -30 98H192C202.493 98 211 106.507 211 117V210H-49V117Z" fill="#90DFA6"/>
<path d="M-56 144C-56 133.507 -47.4934 125 -37 125H252C262.493 125 271 133.507 271 144V237H-56V144Z" fill="#99F2B2"/>
<rect x="24.6226" y="0.79245" width="4.75472" height="41.2075" fill="#565A67"/>
<ellipse cx="27" cy="19.4151" rx="18.2264" ry="5.9434" fill="#565A67"/>
<ellipse cx="24.6226" cy="13.8679" rx="11.8868" ry="2.77358" fill="#565A67"/>
<ellipse cx="30.9623" cy="11.0943" rx="11.0943" ry="2.37736" fill="#565A67"/>
<ellipse cx="22.2453" cy="8.71699" rx="9.50943" ry="2.37736" fill="#565A67"/>
<ellipse cx="29.7735" cy="5.9434" rx="9.11321" ry="1.98113" fill="#565A67"/>
<ellipse cx="25.8113" cy="3.56603" rx="5.9434" ry="1.98113" fill="#565A67"/>
<ellipse cx="27" cy="1.58491" rx="5.54717" ry="1.58491" fill="#565A67"/>
<rect x="142.698" y="61.5849" width="3.50943" height="30.4151" fill="#41444F"/>
<ellipse cx="144.453" cy="75.3302" rx="13.4528" ry="4.38679" fill="#41444F"/>
<ellipse cx="142.698" cy="71.2359" rx="8.77359" ry="2.04717" fill="#41444F"/>
<ellipse cx="147.377" cy="69.1887" rx="8.18868" ry="1.75472" fill="#41444F"/>
<ellipse cx="140.943" cy="67.434" rx="7.01887" ry="1.75472" fill="#41444F"/>
<ellipse cx="146.5" cy="65.3868" rx="6.72642" ry="1.46226" fill="#41444F"/>
<ellipse cx="143.575" cy="63.6321" rx="4.38679" ry="1.46226" fill="#41444F"/>
<ellipse cx="144.453" cy="62.1698" rx="4.09434" ry="1.16981" fill="#41444F"/>
<rect x="120.302" y="69.4151" width="2.49057" height="21.5849" fill="#41444F"/>
<ellipse cx="121.547" cy="79.1698" rx="9.54717" ry="3.11321" fill="#41444F"/>
<ellipse cx="120.302" cy="76.2642" rx="6.22642" ry="1.45283" fill="#41444F"/>
<ellipse cx="123.623" cy="74.8113" rx="5.81132" ry="1.24528" fill="#41444F"/>
<ellipse cx="119.057" cy="73.566" rx="4.98113" ry="1.24528" fill="#41444F"/>
<ellipse cx="123" cy="72.1132" rx="4.77358" ry="1.03774" fill="#41444F"/>
<ellipse cx="120.925" cy="70.8679" rx="3.11321" ry="1.03774" fill="#41444F"/>
<ellipse cx="121.547" cy="69.8302" rx="2.90566" ry="0.830189" fill="#41444F"/>
</svg>
