<svg width="277" height="150" viewBox="0 0 277 150" fill="none" xmlns="http://www.w3.org/2000/svg">
<path d="M298 61C298 50.5066 289.493 42 279 42H237C226.507 42 218 50.5066 218 61V154H298V61Z" fill="#4F5037"/>
<path d="M310 73C310 62.5066 301.493 54 291 54H197C186.507 54 178 62.5066 178 73V166H310V73Z" fill="#6A7051"/>
<path d="M327 88C327 77.5066 318.493 69 308 69H214C203.507 69 195 77.5066 195 88V181H327V88Z" fill="#93996F"/>
<path d="M330 107C330 96.5066 321.493 88 311 88H121C110.507 88 102 96.5066 102 107V200H330V107Z" fill="#7CBB8E"/>
<path d="M320 117C320 106.507 311.493 98 301 98H79C68.5066 98 60 106.507 60 117V210H320V117Z" fill="#90DFA6"/>
<path d="M327 144C327 133.507 318.493 125 308 125H19C8.50659 125 0 133.507 0 144V237H327V144Z" fill="#99F2B2"/>
<rect width="7.13208" height="61.8113" transform="matrix(-1 0 0 1 236.906 63.1887)" fill="#11441C"/>
<ellipse rx="27.3396" ry="8.91509" transform="matrix(-1 0 0 1 233.34 91.1226)" fill="#11441C"/>
<ellipse rx="17.8302" ry="4.16038" transform="matrix(-1 0 0 1 236.906 82.8019)" fill="#11441C"/>
<ellipse rx="16.6415" ry="3.56604" transform="matrix(-1 0 0 1 227.396 78.6415)" fill="#11441C"/>
<ellipse rx="14.2642" ry="3.56604" transform="matrix(-1 0 0 1 240.472 75.0755)" fill="#11441C"/>
<ellipse rx="13.6698" ry="2.9717" transform="matrix(-1 0 0 1 229.179 70.9151)" fill="#11441C"/>
<ellipse rx="8.91509" ry="2.9717" transform="matrix(-1 0 0 1 235.123 67.3491)" fill="#11441C"/>
<ellipse rx="8.32076" ry="2.37736" transform="matrix(-1 0 0 1 233.34 64.3774)" fill="#11441C"/>
<rect width="3.50943" height="30.4151" transform="matrix(-1 0 0 1 128.203 83.5849)" fill="#3A611B"/>
<ellipse rx="13.4528" ry="4.38679" transform="matrix(-1 0 0 1 126.448 97.3302)" fill="#3A611B"/>
<ellipse rx="8.77359" ry="2.04717" transform="matrix(-1 0 0 1 128.203 93.2359)" fill="#3A611B"/>
<ellipse rx="8.18868" ry="1.75472" transform="matrix(-1 0 0 1 123.524 91.1887)" fill="#3A611B"/>
<ellipse rx="7.01887" ry="1.75472" transform="matrix(-1 0 0 1 129.958 89.434)" fill="#3A611B"/>
<ellipse rx="6.72642" ry="1.46226" transform="matrix(-1 0 0 1 124.401 87.3868)" fill="#3A611B"/>
<ellipse rx="4.38679" ry="1.46226" transform="matrix(-1 0 0 1 127.326 85.6321)" fill="#3A611B"/>
<ellipse rx="4.09434" ry="1.16981" transform="matrix(-1 0 0 1 126.448 84.1698)" fill="#3A611B"/>
<rect width="2.49057" height="21.5849" transform="matrix(-1 0 0 1 98.7879 76.4151)" fill="#485656"/>
<ellipse rx="9.54717" ry="3.11321" transform="matrix(-1 0 0 1 97.5426 86.1698)" fill="#485656"/>
<ellipse rx="6.22642" ry="1.45283" transform="matrix(-1 0 0 1 98.7879 83.2642)" fill="#485656"/>
<ellipse rx="5.81132" ry="1.24528" transform="matrix(-1 0 0 1 95.4671 81.8113)" fill="#485656"/>
<ellipse rx="4.98113" ry="1.24528" transform="matrix(-1 0 0 1 100.033 80.566)" fill="#485656"/>
<ellipse rx="4.77358" ry="1.03774" transform="matrix(-1 0 0 1 96.0898 79.1132)" fill="#485656"/>
<ellipse rx="3.11321" ry="1.03774" transform="matrix(-1 0 0 1 98.1652 77.8679)" fill="#485656"/>
<ellipse rx="2.90566" ry="0.830189" transform="matrix(-1 0 0 1 97.5426 76.8302)" fill="#485656"/>
<path fill-rule="evenodd" clip-rule="evenodd" d="M245.04 24.0105C239.058 24.0105 234.209 19.1616 234.209 13.1802C234.209 12.8567 234.223 12.5365 234.251 12.2201C234.387 14.4392 235.164 14.9172 236.048 14.9172C236.205 14.9172 236.375 14.8102 236.561 14.6937C237.1 14.3549 237.766 13.9359 238.603 15.8367C240.401 19.9236 250.421 14.4063 252.089 12.5672C248.603 12.6312 237.732 12.7011 234.865 9.459C236.383 5.31071 240.366 2.34996 245.04 2.34996C251.021 2.34996 255.87 7.19884 255.87 13.1802C255.87 15.3853 255.211 17.4364 254.079 19.1474C256.786 23.1775 260.808 29.7178 256.577 28.454C252.075 27.1091 255.164 33.156 257.556 32.1229L256.564 32.9638C254.783 33.4321 250.371 24.7646 257.5 26.5823C258.571 26.8554 256.294 23.451 253.541 19.8901C253.415 20.05 253.284 20.2062 253.149 20.3586C253.934 23.2244 254.559 26.5735 252.53 25.214C250.021 23.5324 250.769 27.8333 252.435 27.6533L251.666 27.9813C250.482 27.9304 249.42 21.7688 253.453 24.2399C253.955 24.5473 253.526 22.8707 252.788 20.7467C250.822 22.7604 248.077 24.0105 245.04 24.0105ZM239.599 15.8469C239.599 16.2701 239.942 16.6132 240.366 16.6132C240.789 16.6132 241.132 16.2701 241.132 15.8469C241.132 15.4237 240.789 15.0806 240.366 15.0806C239.942 15.0806 239.599 15.4237 239.599 15.8469ZM240.185 14.4826C241.523 14.377 243.452 14.2246 243.974 14.7532C244.324 15.1079 244.421 14.089 244.134 13.2584C244.032 12.9638 242.267 12.7263 239.454 13.465L239.146 14.5458C239.387 14.5457 239.755 14.5166 240.185 14.4826ZM236.875 13.8275C236.875 14.1246 236.634 14.3654 236.337 14.3654C236.04 14.3654 235.799 14.1246 235.799 13.8275C235.799 13.5305 236.04 13.2897 236.337 13.2897C236.634 13.2897 236.875 13.5305 236.875 13.8275ZM236.263 12.8353C235.96 12.6471 235.937 12.633 235.702 12.73C235.466 12.8273 234.828 11.2041 235.312 11.3008C235.796 11.3975 237.005 12.4603 237.113 12.8545L237.26 13.3967C236.744 13.1335 236.451 12.9513 236.264 12.8353L236.263 12.8353Z" fill="#212121"/>
<ellipse rx="5.58781" ry="10.8565" transform="matrix(-0.998053 -0.0623707 -0.0623707 0.998053 244.705 27.9402)" fill="#212121"/>
<path d="M250.448 44.9047C250.55 44.496 246.106 39.4896 249.375 32.7973C248.762 33.1038 246.208 32.1284 243.705 33.9212C241.202 35.7141 245.51 42.9805 247.536 44.445C246.344 44.5982 243.909 44.9558 243.705 45.1602C243.449 45.4156 244.931 45.5178 245.237 45.6199C245.544 45.7221 250.346 45.3134 250.448 44.9047Z" fill="#212121"/>
<path d="M244.061 43.5255C244.163 43.1168 239.26 39.0363 245.033 33.2859C244.42 33.5924 242.99 32.5707 239.924 33.95C236.859 35.3293 239.122 41.6012 241.149 43.0657C239.957 43.219 237.522 43.5766 237.317 43.7809C237.062 44.0363 238.543 44.1385 238.85 44.2407C239.156 44.3428 243.959 43.9342 244.061 43.5255Z" fill="#212121"/>
<path d="M230.977 28.5061L244.31 24.9301L247.222 26.4116C247.665 28.3188 247.927 31.6428 245.434 29.6811C242.941 27.7194 235.336 28.8637 231.845 29.6811L230.977 28.5061Z" fill="#212121"/>
<path d="M231.215 28.6403L242.171 23.9718L244.832 24.9306C245.436 26.5472 246.054 29.4235 243.693 27.9963C241.333 26.5692 234.978 28.449 232.095 29.5674L231.215 28.6403Z" fill="#212121"/>
<path d="M189.634 14.8997L235.426 29.842L235.162 30.7283C220.843 26.5957 192 18.1847 191.185 17.6017C190.37 17.0188 189.811 15.5574 189.634 14.8997Z" fill="#212121"/>
</svg>
